<svg width="47" height="47" viewBox="0 0 47 47" fill="none" xmlns="http://www.w3.org/2000/svg">
<path d="M23.5 27.34C27.7281 27.34 31.1666 23.9015 31.1666 19.6734C31.1666 15.4452 27.7281 12.0067 23.5 12.0067C19.2718 12.0067 15.8333 15.4452 15.8333 19.6734C15.8333 23.9015 19.2718 27.34 23.5 27.34ZM23.5 15.84C25.6141 15.84 27.3333 17.5593 27.3333 19.6734C27.3333 21.7875 25.6141 23.5067 23.5 23.5067C21.3859 23.5067 19.6666 21.7875 19.6666 19.6734C19.6666 17.5593 21.3859 15.84 23.5 15.84Z" fill="white"/>
<path d="M22.3884 42.3169C22.7128 42.5486 23.1014 42.6731 23.5001 42.6731C23.8987 42.6731 24.2873 42.5486 24.6117 42.3169C25.1944 41.9048 38.889 32.0168 38.8334 19.6734C38.8334 11.219 31.9545 4.34009 23.5001 4.34009C15.0457 4.34009 8.16673 11.219 8.16673 19.6638C8.11115 32.0168 21.8057 41.9048 22.3884 42.3169ZM23.5001 8.17342C29.8423 8.17342 35.0001 13.3312 35.0001 19.683C35.0403 28.1892 26.5897 35.8271 23.5001 38.3322C20.4123 35.8252 11.9598 28.1853 12.0001 19.6734C12.0001 13.3312 17.1578 8.17342 23.5001 8.17342Z" fill="white"/>
</svg>
