<svg width="42" height="41" viewBox="0 0 42 41" fill="none" xmlns="http://www.w3.org/2000/svg">
<path d="M35.7103 4.48962H6.25117C5.54271 4.48962 4.97034 5.062 4.97034 5.77046V35.2296C4.97034 35.938 5.54271 36.5104 6.25117 36.5104H35.7103C36.4187 36.5104 36.9911 35.938 36.9911 35.2296V5.77046C36.9911 5.062 36.4187 4.48962 35.7103 4.48962ZM32.0119 13.8357H29.4542C27.4489 13.8357 27.0607 14.7883 27.0607 16.1892V19.2752H31.8478L31.2234 24.1064H27.0607V36.5104H22.0694V24.1104H17.8947V19.2752H22.0694V15.7129C22.0694 11.5782 24.5951 9.32476 28.2855 9.32476C30.0546 9.32476 31.5716 9.45685 32.0159 9.51689V13.8357H32.0119Z" fill="white"/>
</svg>
