<svg width="63" height="63" viewBox="0 0 63 63" fill="none" xmlns="http://www.w3.org/2000/svg">
<path d="M13.7857 17.7832L7.49714 11.4615L11.66 7.25705L17.919 13.6085L13.7857 17.7832ZM34.4524 0.189941V9.13564H28.5476V0.189941H34.4524ZM55.5029 11.4615L49.2143 17.7832L45.081 13.6085L51.34 7.25705L55.5029 11.4615ZM9.35714 28.518V34.4818H0.5V28.518H9.35714ZM53.6429 28.518H62.5V34.4818H53.6429V28.518ZM13.7857 56.8461H49.2143C50.7803 56.8461 52.2822 57.4744 53.3896 58.5928C54.4969 59.7113 55.119 61.2282 55.119 62.8099H7.88095C7.88095 61.2282 8.50306 59.7113 9.61042 58.5928C10.7178 57.4744 12.2197 56.8461 13.7857 56.8461ZM31.5 12.1175C36.1981 12.1175 40.7038 14.0025 44.0259 17.3578C47.348 20.7131 49.2143 25.2639 49.2143 30.009V53.8642H13.7857V30.009C13.7857 25.2639 15.652 20.7131 18.9741 17.3578C22.2962 14.0025 26.8019 12.1175 31.5 12.1175Z" fill="#03D6F3"/>
</svg>
