<svg width="63" height="53" viewBox="0 0 63 53" fill="none" xmlns="http://www.w3.org/2000/svg">
<path d="M51.5873 26.5001H45.9109V35.0146H37.3964V40.691H51.5873V26.5001ZM17.5291 17.9856H26.0436V12.3092H11.8527V26.5001H17.5291V17.9856ZM57.2636 0.956543H6.17636C4.6709 0.956543 3.22709 1.55459 2.16257 2.61911C1.09804 3.68363 0.5 5.12743 0.5 6.63289V46.3674C0.5 47.8728 1.09804 49.3166 2.16257 50.3811C3.22709 51.4457 4.6709 52.0437 6.17636 52.0437H57.2636C58.7691 52.0437 60.2129 51.4457 61.2774 50.3811C62.342 49.3166 62.94 47.8728 62.94 46.3674V6.63289C62.94 5.12743 62.342 3.68363 61.2774 2.61911C60.2129 1.55459 58.7691 0.956543 57.2636 0.956543ZM57.2636 46.3674H6.17636V6.63289H57.2636V46.3674Z" fill="#03D6F3"/>
</svg>
