<svg width="42" height="41" viewBox="0 0 42 41" fill="none" xmlns="http://www.w3.org/2000/svg">
<path d="M35.6981 4.48962H6.23902C5.53056 4.48962 4.95819 5.062 4.95819 5.77046V35.2296C4.95819 35.938 5.53056 36.5104 6.23902 36.5104H35.6981C36.4066 36.5104 36.979 35.938 36.979 35.2296V5.77046C36.979 5.062 36.4066 4.48962 35.6981 4.48962ZM14.4564 31.7753H9.70527V16.4934H14.4564V31.7753ZM12.0828 14.4041C11.5382 14.4041 11.0057 14.2425 10.5529 13.94C10.1 13.6374 9.74707 13.2073 9.53865 12.7041C9.33022 12.2009 9.27568 11.6472 9.38194 11.113C9.4882 10.5789 9.75047 10.0882 10.1356 9.70305C10.5207 9.31792 11.0114 9.05565 11.5456 8.9494C12.0798 8.84314 12.6335 8.89768 13.1366 9.1061C13.6398 9.31453 14.0699 9.66749 14.3725 10.1203C14.6751 10.5732 14.8366 11.1056 14.8366 11.6503C14.8326 13.1713 13.5998 14.4041 12.0828 14.4041ZM32.2439 31.7753H27.4968V24.3425C27.4968 22.5694 27.4648 20.2919 25.0272 20.2919C22.5576 20.2919 22.1774 22.2211 22.1774 24.2144V31.7753H17.4343V16.4934H21.9892V18.5828H22.0533C22.6857 17.382 24.2347 16.1132 26.5482 16.1132C31.3593 16.1132 32.2439 19.2792 32.2439 23.3939V31.7753Z" fill="white"/>
</svg>
