<svg width="42" height="41" viewBox="0 0 42 41" fill="none" xmlns="http://www.w3.org/2000/svg">
<path d="M37.645 10.1854C36.4202 10.7138 35.0873 11.094 33.7144 11.2421C35.1398 10.3953 36.2072 9.05748 36.7164 7.47966C35.3788 8.27533 33.9136 8.83327 32.3855 9.12873C31.7469 8.44599 30.9745 7.90209 30.1165 7.53092C29.2585 7.15975 28.3332 6.96927 27.3983 6.97133C23.6159 6.97133 20.5739 10.0373 20.5739 13.7998C20.5739 14.3281 20.6379 14.8564 20.742 15.3648C15.0783 15.0686 10.027 12.3628 6.66887 8.22014C6.05697 9.26528 5.73632 10.4553 5.74026 11.6664C5.74026 14.0359 6.94505 16.1253 8.78224 17.3541C7.69955 17.3114 6.64222 17.0138 5.69624 16.4855V16.5696C5.69624 19.8877 8.04176 22.6375 11.1678 23.2699C10.5808 23.4224 9.97704 23.5004 9.37062 23.5021C8.92633 23.5021 8.50606 23.458 8.08178 23.398C8.94634 26.1037 11.464 28.069 14.4619 28.1331C12.1164 29.9703 9.17849 31.051 5.98843 31.051C5.41605 31.051 4.88771 31.0309 4.33936 30.9669C7.36532 32.9082 10.9556 34.0289 14.8222 34.0289C27.3743 34.0289 34.2428 23.6301 34.2428 14.6043C34.2428 14.3081 34.2428 14.0119 34.2227 13.7157C35.5516 12.7431 36.7164 11.5383 37.645 10.1854Z" fill="white"/>
</svg>
